<svg width="180" height="185" viewBox="0 0 180 185" fill="none" xmlns="http://www.w3.org/2000/svg">
<path d="M1.68401 8.822V7.464H3.98001V5.14H5.38001V7.464H7.67601V8.822H5.38001V11.23H3.98001V8.822H1.68401Z" fill="#FF6652"/>
<path d="M20.684 8.822V7.464H22.98V5.14H24.38V7.464H26.676V8.822H24.38V11.23H22.98V8.822H20.684Z" fill="#FF6652"/>
<path d="M39.684 8.822V7.464H41.98V5.14H43.38V7.464H45.676V8.822H43.38V11.23H41.98V8.822H39.684Z" fill="#FF6652"/>
<path d="M58.684 8.822V7.464H60.98V5.14H62.38V7.464H64.676V8.822H62.38V11.23H60.98V8.822H58.684Z" fill="#FF6652"/>
<path d="M77.684 8.822V7.464H79.98V5.14H81.38V7.464H83.676V8.822H81.38V11.23H79.98V8.822H77.684Z" fill="#FF6652"/>
<path d="M96.684 8.822V7.464H98.98V5.14H100.38V7.464H102.676V8.822H100.38V11.23H98.98V8.822H96.684Z" fill="#FF6652"/>
<path d="M115.684 8.822V7.464H117.98V5.14H119.38V7.464H121.676V8.822H119.38V11.23H117.98V8.822H115.684Z" fill="#FF6652"/>
<path d="M134.684 8.822V7.464H136.98V5.14H138.38V7.464H140.676V8.822H138.38V11.23H136.98V8.822H134.684Z" fill="#FF6652"/>
<path d="M153.684 8.822V7.464H155.98V5.14H157.38V7.464H159.676V8.822H157.38V11.23H155.98V8.822H153.684Z" fill="#FF6652"/>
<path d="M172.684 8.822V7.464H174.98V5.14H176.38V7.464H178.676V8.822H176.38V11.23H174.98V8.822H172.684Z" fill="#FF6652"/>
<path d="M1.68401 27.822V26.464H3.98001V24.14H5.38001V26.464H7.67601V27.822H5.38001V30.23H3.98001V27.822H1.68401Z" fill="#FF6652"/>
<path d="M20.684 27.822V26.464H22.98V24.14H24.38V26.464H26.676V27.822H24.38V30.23H22.98V27.822H20.684Z" fill="#FF6652"/>
<path d="M39.684 27.822V26.464H41.98V24.14H43.38V26.464H45.676V27.822H43.38V30.23H41.98V27.822H39.684Z" fill="#FF6652"/>
<path d="M58.684 27.822V26.464H60.98V24.14H62.38V26.464H64.676V27.822H62.38V30.23H60.98V27.822H58.684Z" fill="#FF6652"/>
<path d="M77.684 27.822V26.464H79.98V24.14H81.38V26.464H83.676V27.822H81.38V30.23H79.98V27.822H77.684Z" fill="#FF6652"/>
<path d="M96.684 27.822V26.464H98.98V24.14H100.38V26.464H102.676V27.822H100.38V30.23H98.98V27.822H96.684Z" fill="#FF6652"/>
<path d="M115.684 27.822V26.464H117.98V24.14H119.38V26.464H121.676V27.822H119.38V30.23H117.98V27.822H115.684Z" fill="#FF6652"/>
<path d="M134.684 27.822V26.464H136.98V24.14H138.38V26.464H140.676V27.822H138.38V30.23H136.98V27.822H134.684Z" fill="#FF6652"/>
<path d="M153.684 27.822V26.464H155.98V24.14H157.38V26.464H159.676V27.822H157.38V30.23H155.98V27.822H153.684Z" fill="#FF6652"/>
<path d="M172.684 27.822V26.464H174.98V24.14H176.38V26.464H178.676V27.822H176.38V30.23H174.98V27.822H172.684Z" fill="#FF6652"/>
<path d="M1.68401 46.822V45.464H3.98001V43.14H5.38001V45.464H7.67601V46.822H5.38001V49.23H3.98001V46.822H1.68401Z" fill="#FF6652"/>
<path d="M20.684 46.822V45.464H22.98V43.14H24.38V45.464H26.676V46.822H24.38V49.23H22.98V46.822H20.684Z" fill="#FF6652"/>
<path d="M39.684 46.822V45.464H41.98V43.14H43.38V45.464H45.676V46.822H43.38V49.23H41.98V46.822H39.684Z" fill="#FF6652"/>
<path d="M58.684 46.822V45.464H60.98V43.14H62.38V45.464H64.676V46.822H62.38V49.23H60.98V46.822H58.684Z" fill="#FF6652"/>
<path d="M77.684 46.822V45.464H79.98V43.14H81.38V45.464H83.676V46.822H81.38V49.23H79.98V46.822H77.684Z" fill="#FF6652"/>
<path d="M96.684 46.822V45.464H98.98V43.14H100.38V45.464H102.676V46.822H100.38V49.23H98.98V46.822H96.684Z" fill="#FF6652"/>
<path d="M115.684 46.822V45.464H117.98V43.14H119.38V45.464H121.676V46.822H119.38V49.23H117.98V46.822H115.684Z" fill="#FF6652"/>
<path d="M134.684 46.822V45.464H136.98V43.14H138.38V45.464H140.676V46.822H138.38V49.23H136.98V46.822H134.684Z" fill="#FF6652"/>
<path d="M153.684 46.822V45.464H155.98V43.14H157.38V45.464H159.676V46.822H157.38V49.23H155.98V46.822H153.684Z" fill="#FF6652"/>
<path d="M172.684 46.822V45.464H174.98V43.14H176.38V45.464H178.676V46.822H176.38V49.23H174.98V46.822H172.684Z" fill="#FF6652"/>
<path d="M1.68401 65.822V64.464H3.98001V62.14H5.38001V64.464H7.67601V65.822H5.38001V68.23H3.98001V65.822H1.68401Z" fill="#FF6652"/>
<path d="M20.684 65.822V64.464H22.98V62.14H24.38V64.464H26.676V65.822H24.38V68.23H22.98V65.822H20.684Z" fill="#FF6652"/>
<path d="M39.684 65.822V64.464H41.98V62.14H43.38V64.464H45.676V65.822H43.38V68.23H41.98V65.822H39.684Z" fill="#FF6652"/>
<path d="M58.684 65.822V64.464H60.98V62.14H62.38V64.464H64.676V65.822H62.38V68.23H60.98V65.822H58.684Z" fill="#FF6652"/>
<path d="M77.684 65.822V64.464H79.98V62.14H81.38V64.464H83.676V65.822H81.38V68.23H79.98V65.822H77.684Z" fill="#FF6652"/>
<path d="M96.684 65.822V64.464H98.98V62.14H100.38V64.464H102.676V65.822H100.38V68.23H98.98V65.822H96.684Z" fill="#FF6652"/>
<path d="M115.684 65.822V64.464H117.98V62.14H119.38V64.464H121.676V65.822H119.38V68.23H117.98V65.822H115.684Z" fill="#FF6652"/>
<path d="M134.684 65.822V64.464H136.98V62.14H138.38V64.464H140.676V65.822H138.38V68.23H136.98V65.822H134.684Z" fill="#FF6652"/>
<path d="M153.684 65.822V64.464H155.98V62.14H157.38V64.464H159.676V65.822H157.38V68.23H155.98V65.822H153.684Z" fill="#FF6652"/>
<path d="M172.684 65.822V64.464H174.98V62.14H176.38V64.464H178.676V65.822H176.38V68.23H174.98V65.822H172.684Z" fill="#FF6652"/>
<path d="M1.68401 84.822V83.464H3.98001V81.14H5.38001V83.464H7.67601V84.822H5.38001V87.23H3.98001V84.822H1.68401Z" fill="#FF6652"/>
<path d="M20.684 84.822V83.464H22.98V81.14H24.38V83.464H26.676V84.822H24.38V87.23H22.98V84.822H20.684Z" fill="#FF6652"/>
<path d="M39.684 84.822V83.464H41.98V81.14H43.38V83.464H45.676V84.822H43.38V87.23H41.98V84.822H39.684Z" fill="#FF6652"/>
<path d="M58.684 84.822V83.464H60.98V81.14H62.38V83.464H64.676V84.822H62.38V87.23H60.98V84.822H58.684Z" fill="#FF6652"/>
<path d="M77.684 84.822V83.464H79.98V81.14H81.38V83.464H83.676V84.822H81.38V87.23H79.98V84.822H77.684Z" fill="#FF6652"/>
<path d="M96.684 84.822V83.464H98.98V81.14H100.38V83.464H102.676V84.822H100.38V87.23H98.98V84.822H96.684Z" fill="#FF6652"/>
<path d="M115.684 84.822V83.464H117.98V81.14H119.38V83.464H121.676V84.822H119.38V87.23H117.98V84.822H115.684Z" fill="#FF6652"/>
<path d="M134.684 84.822V83.464H136.98V81.14H138.38V83.464H140.676V84.822H138.38V87.23H136.98V84.822H134.684Z" fill="#FF6652"/>
<path d="M153.684 84.822V83.464H155.98V81.14H157.38V83.464H159.676V84.822H157.38V87.23H155.98V84.822H153.684Z" fill="#FF6652"/>
<path d="M172.684 84.822V83.464H174.98V81.14H176.38V83.464H178.676V84.822H176.38V87.23H174.98V84.822H172.684Z" fill="#FF6652"/>
<path d="M1.68401 103.822V102.464H3.98001V100.14H5.38001V102.464H7.67601V103.822H5.38001V106.23H3.98001V103.822H1.68401Z" fill="#FF6652"/>
<path d="M20.684 103.822V102.464H22.98V100.14H24.38V102.464H26.676V103.822H24.38V106.23H22.98V103.822H20.684Z" fill="#FF6652"/>
<path d="M39.684 103.822V102.464H41.98V100.14H43.38V102.464H45.676V103.822H43.38V106.23H41.98V103.822H39.684Z" fill="#FF6652"/>
<path d="M58.684 103.822V102.464H60.98V100.14H62.38V102.464H64.676V103.822H62.38V106.23H60.98V103.822H58.684Z" fill="#FF6652"/>
<path d="M77.684 103.822V102.464H79.98V100.14H81.38V102.464H83.676V103.822H81.38V106.23H79.98V103.822H77.684Z" fill="#FF6652"/>
<path d="M96.684 103.822V102.464H98.98V100.14H100.38V102.464H102.676V103.822H100.38V106.23H98.98V103.822H96.684Z" fill="#FF6652"/>
<path d="M115.684 103.822V102.464H117.98V100.14H119.38V102.464H121.676V103.822H119.38V106.23H117.98V103.822H115.684Z" fill="#FF6652"/>
<path d="M134.684 103.822V102.464H136.98V100.14H138.38V102.464H140.676V103.822H138.38V106.23H136.98V103.822H134.684Z" fill="#FF6652"/>
<path d="M153.684 103.822V102.464H155.98V100.14H157.38V102.464H159.676V103.822H157.38V106.23H155.98V103.822H153.684Z" fill="#FF6652"/>
<path d="M172.684 103.822V102.464H174.98V100.14H176.38V102.464H178.676V103.822H176.38V106.23H174.98V103.822H172.684Z" fill="#FF6652"/>
<path d="M1.68401 122.822V121.464H3.98001V119.14H5.38001V121.464H7.67601V122.822H5.38001V125.23H3.98001V122.822H1.68401Z" fill="#FF6652"/>
<path d="M20.684 122.822V121.464H22.98V119.14H24.38V121.464H26.676V122.822H24.38V125.23H22.98V122.822H20.684Z" fill="#FF6652"/>
<path d="M39.684 122.822V121.464H41.98V119.14H43.38V121.464H45.676V122.822H43.38V125.23H41.98V122.822H39.684Z" fill="#FF6652"/>
<path d="M58.684 122.822V121.464H60.98V119.14H62.38V121.464H64.676V122.822H62.38V125.23H60.98V122.822H58.684Z" fill="#FF6652"/>
<path d="M77.684 122.822V121.464H79.98V119.14H81.38V121.464H83.676V122.822H81.38V125.23H79.98V122.822H77.684Z" fill="#FF6652"/>
<path d="M96.684 122.822V121.464H98.98V119.14H100.38V121.464H102.676V122.822H100.38V125.23H98.98V122.822H96.684Z" fill="#FF6652"/>
<path d="M115.684 122.822V121.464H117.98V119.14H119.38V121.464H121.676V122.822H119.38V125.23H117.98V122.822H115.684Z" fill="#FF6652"/>
<path d="M134.684 122.822V121.464H136.98V119.14H138.38V121.464H140.676V122.822H138.38V125.23H136.98V122.822H134.684Z" fill="#FF6652"/>
<path d="M153.684 122.822V121.464H155.98V119.14H157.38V121.464H159.676V122.822H157.38V125.23H155.98V122.822H153.684Z" fill="#FF6652"/>
<path d="M172.684 122.822V121.464H174.98V119.14H176.38V121.464H178.676V122.822H176.38V125.23H174.98V122.822H172.684Z" fill="#FF6652"/>
<path d="M1.68401 141.822V140.464H3.98001V138.14H5.38001V140.464H7.67601V141.822H5.38001V144.23H3.98001V141.822H1.68401Z" fill="#FF6652"/>
<path d="M20.684 141.822V140.464H22.98V138.14H24.38V140.464H26.676V141.822H24.38V144.23H22.98V141.822H20.684Z" fill="#FF6652"/>
<path d="M39.684 141.822V140.464H41.98V138.14H43.38V140.464H45.676V141.822H43.38V144.23H41.98V141.822H39.684Z" fill="#FF6652"/>
<path d="M58.684 141.822V140.464H60.98V138.14H62.38V140.464H64.676V141.822H62.38V144.23H60.98V141.822H58.684Z" fill="#FF6652"/>
<path d="M77.684 141.822V140.464H79.98V138.14H81.38V140.464H83.676V141.822H81.38V144.23H79.98V141.822H77.684Z" fill="#FF6652"/>
<path d="M96.684 141.822V140.464H98.98V138.14H100.38V140.464H102.676V141.822H100.38V144.23H98.98V141.822H96.684Z" fill="#FF6652"/>
<path d="M115.684 141.822V140.464H117.98V138.14H119.38V140.464H121.676V141.822H119.38V144.23H117.98V141.822H115.684Z" fill="#FF6652"/>
<path d="M134.684 141.822V140.464H136.98V138.14H138.38V140.464H140.676V141.822H138.38V144.23H136.98V141.822H134.684Z" fill="#FF6652"/>
<path d="M153.684 141.822V140.464H155.98V138.14H157.38V140.464H159.676V141.822H157.38V144.23H155.98V141.822H153.684Z" fill="#FF6652"/>
<path d="M172.684 141.822V140.464H174.98V138.14H176.38V140.464H178.676V141.822H176.38V144.23H174.98V141.822H172.684Z" fill="#FF6652"/>
<path d="M1.68401 160.822V159.464H3.98001V157.14H5.38001V159.464H7.67601V160.822H5.38001V163.23H3.98001V160.822H1.68401Z" fill="#FF6652"/>
<path d="M20.684 160.822V159.464H22.98V157.14H24.38V159.464H26.676V160.822H24.38V163.23H22.98V160.822H20.684Z" fill="#FF6652"/>
<path d="M39.684 160.822V159.464H41.98V157.14H43.38V159.464H45.676V160.822H43.38V163.23H41.98V160.822H39.684Z" fill="#FF6652"/>
<path d="M58.684 160.822V159.464H60.98V157.14H62.38V159.464H64.676V160.822H62.38V163.23H60.98V160.822H58.684Z" fill="#FF6652"/>
<path d="M77.684 160.822V159.464H79.98V157.14H81.38V159.464H83.676V160.822H81.38V163.23H79.98V160.822H77.684Z" fill="#FF6652"/>
<path d="M96.684 160.822V159.464H98.98V157.14H100.38V159.464H102.676V160.822H100.38V163.23H98.98V160.822H96.684Z" fill="#FF6652"/>
<path d="M115.684 160.822V159.464H117.98V157.14H119.38V159.464H121.676V160.822H119.38V163.23H117.98V160.822H115.684Z" fill="#FF6652"/>
<path d="M134.684 160.822V159.464H136.98V157.14H138.38V159.464H140.676V160.822H138.38V163.23H136.98V160.822H134.684Z" fill="#FF6652"/>
<path d="M153.684 160.822V159.464H155.98V157.14H157.38V159.464H159.676V160.822H157.38V163.23H155.98V160.822H153.684Z" fill="#FF6652"/>
<path d="M172.684 160.822V159.464H174.98V157.14H176.38V159.464H178.676V160.822H176.38V163.23H174.98V160.822H172.684Z" fill="#FF6652"/>
<path d="M1.68401 179.822V178.464H3.98001V176.14H5.38001V178.464H7.67601V179.822H5.38001V182.23H3.98001V179.822H1.68401Z" fill="#FF6652"/>
<path d="M20.684 179.822V178.464H22.98V176.14H24.38V178.464H26.676V179.822H24.38V182.23H22.98V179.822H20.684Z" fill="#FF6652"/>
<path d="M39.684 179.822V178.464H41.98V176.14H43.38V178.464H45.676V179.822H43.38V182.23H41.98V179.822H39.684Z" fill="#FF6652"/>
<path d="M58.684 179.822V178.464H60.98V176.14H62.38V178.464H64.676V179.822H62.38V182.23H60.98V179.822H58.684Z" fill="#FF6652"/>
<path d="M77.684 179.822V178.464H79.98V176.14H81.38V178.464H83.676V179.822H81.38V182.23H79.98V179.822H77.684Z" fill="#FF6652"/>
<path d="M96.684 179.822V178.464H98.98V176.14H100.38V178.464H102.676V179.822H100.38V182.23H98.98V179.822H96.684Z" fill="#FF6652"/>
<path d="M115.684 179.822V178.464H117.98V176.14H119.38V178.464H121.676V179.822H119.38V182.23H117.98V179.822H115.684Z" fill="#FF6652"/>
<path d="M134.684 179.822V178.464H136.98V176.14H138.38V178.464H140.676V179.822H138.38V182.23H136.98V179.822H134.684Z" fill="#FF6652"/>
<path d="M153.684 179.822V178.464H155.98V176.14H157.38V178.464H159.676V179.822H157.38V182.23H155.98V179.822H153.684Z" fill="#FF6652"/>
<path d="M172.684 179.822V178.464H174.98V176.14H176.38V178.464H178.676V179.822H176.38V182.23H174.98V179.822H172.684Z" fill="#FF6652"/>
</svg>
